<?xml version="1.0" encoding="utf-8"?>
<!-- Generator: Adobe Illustrator 22.1.0, SVG Export Plug-In . SVG Version: 6.00 Build 0)  -->
<svg version="1.1" id="Layer_1" xmlns="http://www.w3.org/2000/svg" xmlns:xlink="http://www.w3.org/1999/xlink" x="0px" y="0px"
	 viewBox="0 0 471.4 163" style="enable-background:new 0 0 471.4 163;" xml:space="preserve">
<style type="text/css">
	.st0{fill:#00664F;}
	.st1{fill:none;stroke:#00664F;stroke-width:11;stroke-miterlimit:10;}
</style>
<title>Asset 3</title>
<g id="Layer_2_1_">
	<g id="Layer_1-2">
		<path class="st0" d="M302.8,26.8h-4.7c-2.5,0-3.8-1.1-3.8-3.2c0-1.3,0.5-2.6,1.5-3.4c1-0.9,2.4-1.4,3.8-1.4h14.6
			c4.4,0,7.8,1,10.2,2.9c2.4,2,3.8,5.1,3.6,8.3c0,3-0.9,5.9-2.7,8.3c-1.8,2.5-4.3,4.3-7.2,5.3c4.1,2,6.1,5.4,6.1,10.3
			c0,3.2-0.9,6.4-2.5,9.2c-1.6,2.9-3.9,5.4-6.7,7.2c-3.7,2.4-9.4,3.6-16.9,3.6H293l-0.4,0.9c-1.1,2.5-2.3,4.9-3.7,7.3
			c-1,1.5-2.1,2.9-3.4,4.1c-3.4,3.3-8,5.1-12.8,5.1c-3.6,0.1-7-1.1-9.7-3.5c-2.5-2.3-3.9-5.5-3.8-8.9c0-2.2,0.5-4.5,1.6-6.4
			c1-1.9,2.6-3.5,4.5-4.6c2.4-1.4,5.7-2.1,9.9-2.1h11.8L302.8,26.8z M283.6,73.8h-8.8c-4.4,0-6.6,1.6-6.6,4.7c0,1.2,0.5,2.4,1.4,3.2
			c0.9,0.9,2.2,1.4,3.5,1.3c2.2-0.1,4.2-0.9,5.8-2.5C281,78.7,282.6,76.3,283.6,73.8L283.6,73.8z M296.6,65.8h2.7
			c4.7,0,8.3-0.8,10.7-2.4c1.6-1.1,2.9-2.5,3.8-4.3c0.9-1.7,1.4-3.5,1.5-5.4c0-2.2-0.6-3.7-1.9-4.5c-1.3-0.9-3.5-1.3-6.7-1.3h-2.7
			L296.6,65.8z M306.9,39.8h2.1c3.2,0,5.7-0.8,7.4-2.3c0.9-0.9,1.7-1.9,2.2-3.1c0.5-1.1,0.8-2.3,0.9-3.5c0.1-1.7-0.9-3.3-2.5-3.8
			c-1.4-0.3-2.8-0.5-4.2-0.4h-0.5L306.9,39.8z"/>
		<path class="st0" d="M338.5,57c0-1.4,0.2-2.7,0.6-4l3.8-16.2h-12.1l1.3-6h19.6l-5.1,22.7c-0.2,0.7-0.3,1.3-0.3,2
			c0,3.3,1.9,4.6,4.7,4.6c2.1-0.1,4.1-0.7,6-1.6l1.6,5.7c-3.1,1.5-6.5,2.2-10,2.2C342.6,66.4,338.5,63,338.5,57z M343.5,20.3
			c0.1-3.2,2.7-5.7,5.9-5.7c3,0,5,1.6,5,4.6c0,3.2-2.7,5.7-5.8,5.7c0,0-0.1,0-0.1,0C345.8,24.9,343.5,23.3,343.5,20.3L343.5,20.3z"
			/>
		<path class="st0" d="M369.4,52.5c0-12.1,8.3-22.2,18.2-22.2c4.6,0,7.6,1.8,9.5,4.5h0.3l1-6.7l2.4-12.3h7.4l-9.9,49h-6l0.3-5h-0.4
			c-3.4,3.5-7.6,5.7-11.6,5.7C373.8,65.4,369.4,60.9,369.4,52.5z M393.1,53.9l2.8-13.3c-1.5-2.5-4.2-4-7.1-4.1
			c-6.6,0-11.9,7-11.9,15.3c0,5.5,2.5,7.9,6.3,7.9C386.3,59.7,390,57.8,393.1,53.9z"/>
		<path class="st0" d="M415.4,40.1l5.5-0.2h11.6l-0.7,3.3h-17L415.4,40.1z M421.1,38.5c1-5,4-7.3,8.6-7.3c2.1,0,4.1,0.6,5.8,1.9
			l-1.9,2.6c-1.1-0.8-2.4-1.3-3.7-1.2c-2.3,0-4,1.1-4.6,4l-4,20.2h-4.1L421.1,38.5z"/>
		<path class="st0" d="M432.4,51.1c-0.2-6.2,4.7-11.3,10.8-11.4c0,0,0.1,0,0.1,0c5.1,0,8.1,3.3,8.1,8.3c0.2,6.2-4.7,11.3-10.8,11.4
			c0,0-0.1,0-0.1,0C435.5,59.4,432.4,56.1,432.4,51.1z M447.3,48.2c0-3.2-1.6-5.1-4.3-5.1c-3.4,0-6.4,3.4-6.4,7.9
			c0,3.2,1.6,5.1,4.3,5.1C444.2,56,447.3,52.6,447.3,48.2z"/>
		<path class="st0" d="M456.5,40.4h3.4l-0.6,5l0,0c2.1-3.3,5.1-5.8,8.3-5.8c1.3-0.1,2.7,0.2,3.8,0.9l-1.6,3.6
			c-0.9-0.5-2-0.8-3.1-0.8c-2.8,0-5.7,2.7-8.1,6.7l-1.9,9.2h-4L456.5,40.4z"/>
		<path class="st0" d="M327.5,129.7h5.9c3.4,0,5.1,1.2,5.1,3.5c0.1,1.5-0.6,2.9-1.8,3.9c-1.5,1-3.2,1.5-5,1.4h-6.9
			c-2.1,0.1-4.1-0.4-5.8-1.6c-1.4-1.1-2.2-2.8-2-4.5c0.2-1.9,0.7-3.8,1.5-5.5l9.4-21.9l-7,7.5c-1.7,1.8-3.3,2.7-4.8,2.7
			c-2,0-3.2-1.3-3.8-4l-1-4.5l-8.9,21.9c-2,5.3-4.3,10.4-7,15.3c-1.6,2.7-3.7,5.1-6.2,7c-3.6,2.8-8.1,4.4-12.7,4.3
			c-4.6,0.2-9.1-1.6-12.4-4.8c-3.2-3.2-4.8-7.4-4.8-12.6c0-6.7,2.7-13.2,7.5-17.9c2.9-2.9,6.3-5.1,10.1-6.6
			c3.8-1.6,7.8-2.5,11.9-2.5c1.7-0.1,3.3,0.4,4.8,1.3c1.1,0.8,1.8,2,1.8,3.4c0,1.4-0.7,2.8-1.9,3.6c-1.3,0.7-2.7,1.1-4.2,1.1
			c-4.1,0.2-8.1,1.4-11.7,3.3c-2.4,1.4-4.4,3.4-5.8,5.8c-1.4,2.2-2.2,4.8-2.2,7.5c-0.1,2.4,0.6,4.7,2.1,6.5c1.5,1.6,3.6,2.5,5.8,2.4
			c3,0,5.8-1.4,7.6-3.8c2.2-2.5,4.6-6.9,7.1-13.3l14.5-35.5c1.3-3.1,3-4.7,5.1-4.7c1.2-0.1,2.4,0.4,3.2,1.3c1,1.4,1.7,2.9,2.1,4.6
			l2.2,8.4L330,91.7c2.4-2.4,4.6-3.5,6.7-3.5c1.4,0,2.7,0.4,3.7,1.3c1,0.8,1.6,2,1.6,3.2c0,0.9-0.2,1.8-0.6,2.6l-0.8,2L327.5,129.7z
			"/>
		<path class="st0" d="M343.9,123.1c0-12.9,9.7-21.8,20.5-21.8c9,0,14.1,5.8,14.1,13.9c0,2.4-0.4,4.7-1.1,6.9h-27.7l0.9-5.4h22.8
			l-2.6,1.3c0.3-1,0.4-2,0.4-3c0-4.8-2.8-7.6-7.1-7.6c-5.7,0-12.5,5.7-12.5,15.4c0,6.8,4,9.9,9.5,9.9c4.2-0.1,8.2-1.6,11.4-4.2
			l2.7,5.2c-4.6,3.3-10.2,5.1-15.9,5C350.2,138.7,343.9,133.5,343.9,123.1z"/>
		<path class="st0" d="M387.5,125c0-13.3,9.1-24.4,20-24.4c5,0,8.8,2,10.6,5.2h0.3l1.6-4.3h6.5l-7.4,37h-6.6l0.3-5.4h-0.3
			c-3.7,3.8-8.3,6.2-12.7,6.2C392.3,139.2,387.5,134.1,387.5,125z M413.5,126.5l3-14.5c-1.6-2.7-4.6-4.4-7.7-4.4
			c-7.1,0-13,7.6-13,16.7c0,6,2.7,8.6,6.8,8.6C406,132.9,410,130.9,413.5,126.5L413.5,126.5z"/>
		<path class="st0" d="M442.8,129.4c0-1.5,0.2-3,0.6-4.4l7.2-33.3H439l1.4-6.5h19.8l-8.7,40.6c-0.2,1-0.4,2.1-0.4,3.1
			c0,3.3,2.1,4.8,5,4.8c2.4,0,4.7-0.7,6.8-1.8l1.8,6.2c-3.5,1.7-7.3,2.5-11.1,2.5C447.4,140.4,442.8,136.5,442.8,129.4z"/>
		<path class="st1" d="M160.6,38.8c16.5,5.6,25.4,23.6,19.8,40.1c-4.4,12.8-16.4,21.5-29.9,21.5c-8.3,0-13.8-8.4-21.5-8.4 M129,68.8
			c17.5,0,31.6-14.2,31.6-31.6S146.5,5.5,129,5.5c-17.5,0-31.6,14.2-31.6,31.6c0,0,0,0,0,0c-17.5,0-31.6,14.2-31.6,31.6
			c0,0.5,0,1,0,1.4c0.8,17,15.1,30.2,32.1,30.2h23.3 M0,127.2c19,0,38.1,9.6,51.2,18.1c12.7,8.2,27.5,12.5,42.6,12.2h30.1H154l0,0
			c15.1,0.3,29.9-3.9,42.6-12.2c13.1-8.5,32.1-18.1,51.2-18.1 M136.4,144.4c0,0,5.7-6.6,0-19s0-19,0-19 M121.6,144.4
			c0,0,5.7-6.6,0-19s0-19,0-19"/>
	</g>
</g>
</svg>
